<svg width="8" height="11" viewBox="0 0 8 11" fill="none" xmlns="http://www.w3.org/2000/svg">
<path d="M3.64599 10.854C3.69244 10.9006 3.74761 10.9375 3.80836 10.9627C3.8691 10.9879 3.93422 11.0009 3.99999 11.0009C4.06576 11.0009 4.13088 10.9879 4.19162 10.9627C4.25237 10.9375 4.30755 10.9006 4.35399 10.854L7.35399 7.854C7.44788 7.76011 7.50062 7.63278 7.50062 7.5C7.50062 7.36722 7.44788 7.23989 7.35399 7.146C7.2601 7.05211 7.13277 6.99937 6.99999 6.99937C6.86722 6.99937 6.73988 7.05211 6.64599 7.146L4.49999 9.293V0.5C4.49999 0.367392 4.44731 0.240215 4.35354 0.146447C4.25978 0.0526784 4.1326 0 3.99999 0C3.86738 0 3.74021 0.0526784 3.64644 0.146447C3.55267 0.240215 3.49999 0.367392 3.49999 0.5V9.293L1.35399 7.146C1.2601 7.05211 1.13277 6.99937 0.999991 6.99937C0.867215 6.99937 0.739877 7.05211 0.645991 7.146C0.552104 7.23989 0.499359 7.36722 0.499359 7.5C0.499359 7.63278 0.552104 7.76011 0.645991 7.854L3.64599 10.854Z" fill="#2C2B2B"/>
</svg>
